<?xml version="1.0" standalone="no"?>
<!DOCTYPE svg PUBLIC "-//W3C//DTD SVG 20010904//EN"
 "http://www.w3.org/TR/2001/REC-SVG-20010904/DTD/svg10.dtd">
<svg version="1.0" xmlns="http://www.w3.org/2000/svg"
 width="260.000000pt" height="260.000000pt" viewBox="0 0 260.000000 260.000000"
 preserveAspectRatio="xMidYMid meet">
<metadata>
Created by potrace 1.14, written by Peter Selinger 2001-2017
</metadata>
<g transform="translate(0.000000,260.000000) scale(0.100000,-0.100000)"
fill="#000000" stroke="none">
<path d="M180 1810 l0 -120 35 0 35 0 0 -335 0 -335 -35 0 -35 0 0 -120 0
-120 280 0 280 0 0 120 0 120 -35 0 -35 0 0 335 0 335 35 0 35 0 0 120 0 120
-280 0 -280 0 0 -120z"/>
<path d="M1470 1811 l0 -121 35 0 35 0 0 -335 0 -335 -35 0 -35 0 0 -120 0
-120 315 0 315 0 0 120 0 120 -70 0 -70 0 0 110 0 110 63 1 c249 3 330 24 404
101 58 60 75 116 75 244 0 92 -4 121 -22 161 -35 79 -104 138 -195 165 -16 4
-207 11 -422 14 l-393 6 0 -121z m595 -146 c22 -21 25 -33 25 -95 0 -62 -3
-74 -25 -95 -18 -18 -35 -25 -65 -25 l-40 0 0 120 0 120 40 0 c30 0 47 -7 65
-25z"/>
<path d="M897 1732 c-8 -70 -25 -100 -69 -119 -21 -9 -38 -22 -39 -27 0 -6 -2
-59 -5 -118 l-5 -108 34 0 34 0 6 -187 c6 -216 17 -269 72 -324 58 -60 96 -73
220 -77 78 -3 134 1 193 13 l82 18 0 113 0 114 -84 0 c-79 0 -86 2 -105 26
-19 24 -21 40 -21 165 l0 139 100 0 100 0 0 120 0 119 -97 3 -98 3 -3 88 -3
87 -153 0 -153 0 -6 -48z"/>
</g>
</svg>
